<svg width="78" height="81" viewBox="0 0 78 81" fill="none" xmlns="http://www.w3.org/2000/svg">
    <rect x="8" y="11" width="62.2254" height="62.2254" fill="#25464E"/>
    <path
            d="M23.856 37.6523C23.8606 35.4039 26.9926 34.8571 27.7393 36.9743L30.4612 44.6927C30.7415 45.4876 31.4904 46.0188 32.3333 46.0206L40.5563 46.0377C42.7916 46.0424 43.3213 49.1587 41.2164 49.9211L33.4731 52.7257C32.6794 53.0132 32.149 53.7677 32.1473 54.6119L32.1306 62.8083C32.126 65.0567 28.994 65.6035 28.2474 63.4863L25.5255 55.7679C25.2451 54.973 24.4962 54.4418 23.6533 54.44L15.4303 54.4229C13.195 54.4182 12.6653 51.3019 14.7702 50.5395L22.5136 47.7349C23.3073 47.4474 23.8377 46.6929 23.8394 45.8487L23.856 37.6523Z"
            fill="#D3DBC2"/>
    <path
            d="M37.5309 15.7915C37.5355 13.5431 40.6675 12.9963 41.4141 15.1135L44.136 22.8319C44.4164 23.6268 45.1653 24.158 46.0082 24.1598L54.2312 24.177C56.4665 24.1816 56.9962 27.2979 54.8913 28.0603L47.148 30.8649C46.3542 31.1524 45.8238 31.9069 45.8221 32.7511L45.8055 40.9476C45.8009 43.1959 42.6689 43.7427 41.9222 41.6255L39.2003 33.9071C38.92 33.1122 38.1711 32.581 37.3282 32.5792L29.1052 32.5621C26.8699 32.5574 26.3402 29.4411 28.4451 28.6787L36.1884 25.8741C36.9821 25.5867 37.5125 24.8321 37.5143 23.9879L37.5309 15.7915Z"
            fill="#D3DBC2"/>
    <path
            d="M48.4529 41.1722C48.6355 38.9318 51.802 38.6415 52.3785 40.8122L54.4794 48.7241C54.6958 49.5391 55.4004 50.1294 56.2407 50.1997L64.4387 50.886C66.6668 51.0725 66.9478 54.2206 64.7889 54.8094L56.8456 56.9758C56.0315 57.1978 55.4429 57.9067 55.3744 58.7478L54.7088 66.9134C54.5262 69.1538 51.3597 69.4441 50.7832 67.2733L48.6823 59.3614C48.4658 58.5465 47.7613 57.9562 46.921 57.8859L38.723 57.1996C36.4949 57.0131 36.2139 53.865 38.3727 53.2762L46.3161 51.1098C47.1302 50.8878 47.7188 50.1789 47.7873 49.3378L48.4529 41.1722Z"
            fill="#D3DBC2"/>
</svg>