<svg width="1024" height="266" viewBox="0 0 1024 266" fill="none" xmlns="http://www.w3.org/2000/svg">
    <path d="M141.25 205H108L88.5 133.5L69 205H35.75L0.75 82H35L55 161L72 82H105L124.25 161L143 82H176.5L141.25 205ZM249.457 158.25L249.707 144.75C246.457 148 240.707 149.75 228.707 152C210.207 155.5 204.207 160.75 204.207 171.25C204.207 180.5 209.707 185 219.957 185C236.707 185 249.207 172.75 249.457 158.25ZM282.207 205H251.957C250.957 202 250.207 197.75 249.957 194C242.207 202.5 229.207 208.25 212.707 208.25C184.707 208.25 171.707 194.5 171.707 174.5C171.707 139 195.457 135 228.207 130.5C244.457 128.25 248.957 125 248.957 116.5C248.957 108.5 240.957 103.75 228.207 103.75C213.457 103.75 207.457 111 205.957 122H175.707C176.207 96.5 190.207 78.75 229.707 78.75C268.707 78.75 282.207 96.25 282.207 127.25V205ZM408.039 205H375.289V130.5C375.289 111.5 369.789 106.25 354.289 106.25C337.289 106.25 329.039 115.75 329.039 134.5V205H296.539V82H327.539V100C335.039 86.25 347.539 78.75 367.289 78.75C390.789 78.75 408.039 93 408.039 119.75V205ZM480.521 181.75C496.021 181.75 508.021 167.25 508.021 146.5C508.021 119.75 498.771 106.5 480.771 106.5C461.771 106.5 452.771 119.25 452.771 144.5C452.771 166.5 464.271 181.75 480.521 181.75ZM538.771 205H507.521L507.271 190C499.521 202.5 488.021 208.25 473.021 208.25C442.021 208.25 419.771 183.75 419.771 142.25C419.771 105 438.521 78.75 470.271 78.75C485.521 78.75 497.521 85 506.771 98V37H538.771V205ZM583.881 131.5H634.131C633.631 113.25 621.631 104.5 608.881 104.5C595.881 104.5 585.131 114.5 583.881 131.5ZM667.631 152H582.881C583.881 170.5 594.381 182.5 610.381 182.5C620.881 182.5 630.131 177.25 632.381 168.75H665.881C658.381 194 638.131 208.25 611.881 208.25C570.881 208.25 550.381 185.75 550.381 141.25C550.381 103.25 572.131 78.75 609.881 78.75C647.631 78.75 667.631 103.25 667.631 152ZM711.363 205H678.863V82H709.363V96.75C720.113 80.25 732.613 78.75 745.863 78.75H750.113V112C747.113 111.5 744.113 111.25 741.113 111.25C721.113 111.25 711.363 121.25 711.363 141V205ZM782.367 131.5H832.617C832.117 113.25 820.117 104.5 807.367 104.5C794.367 104.5 783.617 114.5 782.367 131.5ZM866.117 152H781.367C782.367 170.5 792.867 182.5 808.867 182.5C819.367 182.5 828.617 177.25 830.867 168.75H864.367C856.867 194 836.617 208.25 810.367 208.25C769.367 208.25 748.867 185.75 748.867 141.25C748.867 103.25 770.617 78.75 808.367 78.75C846.117 78.75 866.117 103.25 866.117 152ZM909.85 205H877.35V82H907.85V96.75C918.6 80.25 931.1 78.75 944.35 78.75H948.6V112C945.6 111.5 942.6 111.25 939.6 111.25C919.6 111.25 909.85 121.25 909.85 141V205Z" fill="white"/>
    <path d="M12.348 265H7.344V245.272H0.144V241.096H19.584V245.272H12.348V265ZM32.0656 245.236H25.6216V251.608H31.8856C34.5496 251.608 35.5576 250.276 35.5576 248.44C35.5576 246.568 34.5496 245.236 32.0656 245.236ZM39.5896 265H34.6936V258.844C34.6936 256.54 33.8296 255.64 30.9496 255.64H25.6216V265H20.7616V241.096H32.8936C37.3216 241.096 40.2376 244.048 40.2376 248.008C40.2376 250.564 38.9776 252.724 36.6736 253.552C38.7976 254.236 39.5896 255.424 39.5896 258.232V265ZM46.5781 265H41.5741V241.096H46.5781V265ZM53.2929 252.256H58.0449C60.9249 252.256 62.1129 250.78 62.1129 248.692C62.1129 246.712 60.9249 245.236 58.0449 245.236H53.2929V252.256ZM53.2929 265H48.2889V241.096H58.8369C63.5169 241.096 66.5049 244.516 66.5049 248.836C66.5049 253.192 63.5169 256.324 58.8369 256.324H53.2929V265ZM81.207 252.256H85.959C88.839 252.256 90.027 250.78 90.027 248.692C90.027 246.712 88.839 245.236 85.959 245.236H81.207V252.256ZM81.207 265H76.203V241.096H86.751C91.431 241.096 94.419 244.516 94.419 248.836C94.419 253.192 91.431 256.324 86.751 256.324H81.207V265ZM112.281 265H95.4335V241.096H100.437V260.644H112.281V265ZM127.113 255.964L124.125 246.46H124.089L121.029 255.964H127.113ZM135.501 265H130.065L128.553 260.068H119.733L118.041 265H112.749L121.281 241.096H127.077L135.501 265ZM156.077 265H151.469L141.245 248.944V265H136.601V241.096H141.893L151.397 256.468V241.096H156.077V265ZM177.347 265H172.739L162.515 248.944V265H157.871V241.096H163.163L172.667 256.468V241.096H177.347V265ZM184.145 265H179.141V241.096H184.145V265ZM205.331 265H200.723L190.499 248.944V265H185.855V241.096H191.147L200.651 256.468V241.096H205.331V265ZM229.085 265H224.945L224.837 262.624C223.685 264.64 220.949 265.828 217.673 265.828C211.049 265.828 206.837 259.672 206.837 253.012C206.837 245.956 210.869 240.304 218.609 240.304C224.297 240.304 228.689 243.688 229.049 248.476H224.009C223.757 246.244 221.345 244.444 218.609 244.444C214.613 244.444 211.949 247.54 211.949 253.228C211.949 257.152 213.929 261.616 218.573 261.616C221.849 261.616 224.405 259.132 224.405 256.144H219.113V252.148H229.085V265ZM258.872 265H253.832V254.272H244.508V265H239.504V241.096H244.508V250.096H253.832V241.096H258.872V265ZM274.277 255.964L271.289 246.46H271.253L268.193 255.964H274.277ZM282.665 265H277.229L275.717 260.068H266.897L265.205 265H259.913L268.445 241.096H274.241L282.665 265ZM300.929 248.152H296.177C295.925 245.704 294.449 244.516 291.425 244.516C288.617 244.516 287.141 245.524 287.141 247.324C287.141 248.836 288.185 249.7 290.849 250.348C293.549 250.996 296.177 251.644 297.941 252.436C300.029 253.372 301.685 254.848 301.685 258.232C301.685 263.488 297.725 265.828 292.145 265.828C286.241 265.828 282.137 263.2 282.029 257.836H286.853C286.925 260.284 288.977 261.796 292.181 261.796C295.133 261.796 296.825 260.536 296.825 258.412C296.825 257.008 296.105 256.036 293.117 255.388C290.165 254.74 288.257 254.308 286.564 253.552C284.009 252.4 282.569 250.672 282.569 247.648C282.569 243.364 285.485 240.304 291.316 240.304C297.365 240.304 300.749 243.58 300.929 248.152ZM331.085 265H326.477L316.253 248.944V265H311.609V241.096H316.901L326.405 256.468V241.096H331.085V265ZM351.023 265H332.879V241.096H350.447V245.272H337.739V250.384H349.439V254.596H337.739V260.752H351.023V265ZM364.135 265H359.419L351.319 241.096H356.647L361.867 257.872L367.051 241.096H372.235L364.135 265ZM391.523 265H373.379V241.096H390.947V245.272H378.239V250.384H389.939V254.596H378.239V260.752H391.523V265ZM403.843 245.236H397.399V251.608H403.663C406.327 251.608 407.335 250.276 407.335 248.44C407.335 246.568 406.327 245.236 403.843 245.236ZM411.367 265H406.471V258.844C406.471 256.54 405.607 255.64 402.727 255.64H397.399V265H392.539V241.096H404.671C409.099 241.096 412.015 244.048 412.015 248.008C412.015 250.564 410.755 252.724 408.451 253.552C410.575 254.236 411.367 255.424 411.367 258.232V265ZM426.859 260.932H433.195C435.499 260.932 436.867 259.456 436.867 257.512C436.867 255.424 435.499 254.488 433.267 254.488H426.859V260.932ZM432.871 245.236H426.859V250.42H433.159C435.139 250.42 436.183 249.52 436.183 247.828C436.183 245.992 435.211 245.236 432.871 245.236ZM432.799 265H422.035V241.096H433.807C438.487 241.096 441.007 243.616 441.007 247.612C441.007 249.664 439.747 251.392 438.091 252.076C440.107 252.832 441.727 254.452 441.727 257.872C441.727 262.228 438.811 265 432.799 265ZM460.851 265H442.707V241.096H460.275V245.272H447.567V250.384H459.267V254.596H447.567V260.752H460.851V265ZM480.011 265H461.867V241.096H479.435V245.272H466.727V250.384H478.427V254.596H466.727V260.752H480.011V265ZM500.503 265H495.895L485.671 248.944V265H481.027V241.096H486.319L495.823 256.468V241.096H500.503V265ZM529.124 265H510.98V241.096H528.548V245.272H515.84V250.384H527.54V254.596H515.84V260.752H529.124V265ZM543.785 255.964L540.797 246.46H540.761L537.701 255.964H543.785ZM552.173 265H546.737L545.225 260.068H536.405L534.713 265H529.421L537.953 241.096H543.749L552.173 265ZM570.436 248.152H565.684C565.432 245.704 563.956 244.516 560.932 244.516C558.124 244.516 556.648 245.524 556.648 247.324C556.648 248.836 557.692 249.7 560.356 250.348C563.056 250.996 565.684 251.644 567.448 252.436C569.536 253.372 571.192 254.848 571.192 258.232C571.192 263.488 567.232 265.828 561.652 265.828C555.748 265.828 551.644 263.2 551.536 257.836H556.36C556.432 260.284 558.484 261.796 561.688 261.796C564.64 261.796 566.332 260.536 566.332 258.412C566.332 257.008 565.612 256.036 562.624 255.388C559.672 254.74 557.764 254.308 556.072 253.552C553.516 252.4 552.076 250.672 552.076 247.648C552.076 243.364 554.992 240.304 560.824 240.304C566.872 240.304 570.256 243.58 570.436 248.152ZM577.437 265H572.433V241.096H577.437V265ZM597.292 265H579.148V241.096H596.716V245.272H584.008V250.384H595.708V254.596H584.008V260.752H597.292V265ZM609.612 245.236H603.168V251.608H609.432C612.096 251.608 613.104 250.276 613.104 248.44C613.104 246.568 612.096 245.236 609.612 245.236ZM617.136 265H612.24V258.844C612.24 256.54 611.376 255.64 608.496 255.64H603.168V265H598.308V241.096H610.44C614.868 241.096 617.784 244.048 617.784 248.008C617.784 250.564 616.524 252.724 614.22 253.552C616.344 254.236 617.136 255.424 617.136 258.232V265Z" fill="white"/>
    <path d="M956.019 43.7815C956.023 41.5396 959.147 41.0014 959.902 43.1125L964.437 55.8015C964.721 56.5958 965.472 57.1266 966.316 57.1284L979.791 57.1561C982.033 57.1608 982.571 60.285 980.46 61.0395L967.771 65.5744C966.977 65.8583 966.446 66.61 966.444 67.4536L966.416 80.9285C966.412 83.1704 963.287 83.7086 962.533 81.5975L957.998 68.9086C957.714 68.1142 956.962 67.5834 956.119 67.5816L942.644 67.5539C940.402 67.5493 939.864 64.425 941.975 63.6706L954.664 59.1357C955.458 58.8518 955.989 58.1 955.991 57.2564L956.019 43.7815Z" fill="#25464E"/>
    <path d="M973.222 16.644C973.227 14.4021 976.351 13.8639 977.106 15.975L981.641 28.6639C981.925 29.4583 982.676 29.9891 983.52 29.9908L996.995 30.0186C999.237 30.0232 999.775 33.1474 997.664 33.9019L984.975 38.4368C984.18 38.7207 983.65 39.4725 983.648 40.316L983.62 53.791C983.616 56.0328 980.491 56.571 979.737 54.4599L975.202 41.771C974.918 40.9766 974.166 40.4458 973.323 40.4441L959.848 40.4163C957.606 40.4117 957.068 37.2875 959.179 36.533L971.868 31.9981C972.662 31.7142 973.193 30.9624 973.195 30.1189L973.222 16.644Z" fill="#25464E"/>
    <path d="M987.201 48.1569C987.386 45.9227 990.543 45.637 991.126 47.8018L994.627 60.8138C994.846 61.6284 995.553 62.2179 996.394 62.2873L1009.82 63.3966C1012.06 63.5812 1012.34 66.7385 1010.18 67.3211L997.166 70.8228C996.352 71.042 995.762 71.7488 995.693 72.5895L994.583 86.0187C994.399 88.253 991.242 88.5386 990.659 86.3738L987.157 73.3618C986.938 72.5472 986.231 71.9577 985.391 71.8883L971.961 70.779C969.727 70.5945 969.441 67.4371 971.606 66.8545L984.618 63.3528C985.433 63.1336 986.022 62.4268 986.092 61.5861L987.201 48.1569Z" fill="#25464E"/>
</svg>